<svg height="15" width="21" xmlns:xlink="http://www.w3.org/1999/xlink" xmlns="http://www.w3.org/2000/svg" viewBox="0 0 21 15">
    <path fill="#b0b3b7" fill-rule="evenodd" d="M 6.75 3.82 C 6.44 4.11 5.93 4.11 5.62 3.82 C 5.62 3.82 3.41 1.79 3.41 1.79 C 3.41 1.79 1.23 3.78 1.23 3.78 C 0.94 4.05 0.48 4.05 0.19 3.78 C -0.09 3.52 -0.09 3.1 0.19 2.83 C 0.19 2.83 2.59 0.64 2.59 0.64 C 2.61 0.49 2.68 0.34 2.81 0.22 C 3.12 -0.07 3.62 -0.07 3.93 0.22 C 3.93 0.22 6.75 2.79 6.75 2.79 C 7.06 3.08 7.06 3.54 6.75 3.82 Z" />
</svg>