<!-- Generator: Avocode undefined - http://avocode.com -->
<svg height="7" width="9" xmlns:xlink="http://www.w3.org/1999/xlink" xmlns="http://www.w3.org/2000/svg" viewBox="0 0 9 7">
    <path fill="#22b5cd" fill-rule="evenodd" d="M 7.97 1.94 C 7.97 1.94 4.49 5.42 4.49 5.42 C 4.44 5.55 4.37 5.67 4.27 5.77 C 3.88 6.16 3.24 6.16 2.85 5.77 C 2.85 5.77 0.73 3.65 0.73 3.65 C 0.34 3.26 0.34 2.62 0.73 2.23 C 1.12 1.84 1.76 1.84 2.15 2.23 C 2.15 2.23 3.5 3.59 3.5 3.59 C 3.5 3.59 6.56 0.53 6.56 0.53 C 6.95 0.13 7.58 0.13 7.97 0.53 C 8.37 0.92 8.37 1.55 7.97 1.94 Z" />
</svg>