<!-- Generator: Avocode undefined - http://avocode.com -->
<svg height="13" width="13" xmlns:xlink="http://www.w3.org/1999/xlink" xmlns="http://www.w3.org/2000/svg" viewBox="0 0 13 13">
    <path fill="#2e2e2e" fill-rule="evenodd" d="M 0 10 C 0 10 3 10 3 10 C 3 10 3 13 3 13 C 3 13 0 13 0 13 C 0 13 0 10 0 10 Z M 5 10 C 5 10 13 10 13 10 C 13 10 13 13 13 13 C 13 13 5 13 5 13 C 5 13 5 10 5 10 Z M 0 5 C 0 5 3 5 3 5 C 3 5 3 8 3 8 C 3 8 0 8 0 8 C 0 8 0 5 0 5 Z M 5 5 C 5 5 13 5 13 5 C 13 5 13 8 13 8 C 13 8 5 8 5 8 C 5 8 5 5 5 5 Z M 0 0 C 0 0 3 0 3 0 C 3 0 3 3 3 3 C 3 3 0 3 0 3 C 0 3 0 0 0 0 Z M 5 0 C 5 0 13 0 13 0 C 13 0 13 3 13 3 C 13 3 5 3 5 3 C 5 3 5 0 5 0 Z" />
</svg>