<!-- Generator: Avocode undefined - http://avocode.com -->
<svg height="13" width="13" xmlns:xlink="http://www.w3.org/1999/xlink" xmlns="http://www.w3.org/2000/svg" viewBox="0 0 13 13">
    <path fill="#b0b3b7" fill-rule="evenodd" d="M 0 0 C 0 0 6 0 6 0 C 6 0 6 6 6 6 C 6 6 0 6 0 6 C 0 6 0 0 0 0 Z M 7 0 C 7 0 13 0 13 0 C 13 0 13 6 13 6 C 13 6 7 6 7 6 C 7 6 7 0 7 0 Z M 7 7 C 7 7 13 7 13 7 C 13 7 13 13 13 13 C 13 13 7 13 7 13 C 7 13 7 7 7 7 Z M 0 7 C 0 7 6 7 6 7 C 6 7 6 13 6 13 C 6 13 0 13 0 13 C 0 13 0 7 0 7 Z" />
</svg>