<!-- Generator: Avocode undefined - http://avocode.com -->
<svg height="17" width="20" xmlns:xlink="http://www.w3.org/1999/xlink" xmlns="http://www.w3.org/2000/svg" viewBox="0 0 20 17">
    <path fill="#b0b0b0" fill-rule="evenodd" d="M 10 17 C 10 17 9.61 16.76 9.61 16.76 C 9.45 16.67 5.7 14.41 3.22 12.2 C 2.94 11.97 0.08 9.53 0 5.65 C 0 5.65 0 5.64 0 5.64 C 0 5.64 0 5.62 0 5.62 C 0 5.57 0.04 4.21 0.76 2.85 C 1.45 1.55 2.89 0 5.85 0 C 5.85 0 5.87 0 5.87 0 C 6.22 0 7.96 0.08 10 1.59 C 12.04 0.08 13.78 0 14.13 0 C 14.13 0 14.15 0 14.15 0 C 17.11 0 18.55 1.55 19.24 2.85 C 19.96 4.21 20 5.57 20 5.62 C 20 5.62 20 5.64 20 5.64 C 20 5.64 20 5.65 20 5.65 C 19.92 9.53 17.06 11.96 16.78 12.2 C 14.3 14.41 10.55 16.67 10.39 16.76 C 10.39 16.76 10 17 10 17 C 10 17 10 17 10 17 Z M 1.5 5.64 C 1.58 8.95 4.16 11.04 4.18 11.06 C 4.18 11.06 4.21 11.09 4.21 11.09 C 6.14 12.81 8.97 14.62 10 15.26 C 11.03 14.62 13.86 12.81 15.79 11.09 C 15.79 11.09 15.82 11.06 15.82 11.06 C 15.84 11.04 18.42 8.92 18.5 5.64 C 18.49 5.53 18.43 4.49 17.89 3.49 C 17.16 2.15 15.9 1.48 14.15 1.48 C 14.15 1.48 14.13 1.48 14.13 1.48 C 14.06 1.48 12.4 1.5 10.48 3.1 C 10.48 3.1 10 3.5 10 3.5 C 10 3.5 9.51 3.1 9.51 3.1 C 7.6 1.5 5.94 1.48 5.87 1.48 C 5.87 1.48 5.85 1.48 5.85 1.48 C 5.85 1.48 5.85 1.48 5.85 1.48 C 4.1 1.48 2.84 2.15 2.11 3.49 C 1.57 4.49 1.51 5.52 1.5 5.64 C 1.5 5.64 1.5 5.64 1.5 5.64 Z" />
</svg>