<!-- Generator: Avocode undefined - http://avocode.com -->
<svg height="14" width="14" xmlns:xlink="http://www.w3.org/1999/xlink" xmlns="http://www.w3.org/2000/svg" viewBox="0 0 14 14">
    <path fill="#b0b3b7" fill-rule="evenodd" d="M 0 14 C 0 14 0 0 0 0 C 0 0 14 0 14 0 C 14 0 14 14 14 14 C 14 14 0 14 0 14 Z M 13 1 C 13 1 1 1 1 1 C 1 1 1 13 1 13 C 1 13 13 13 13 13 C 13 13 13 1 13 1 Z M 4.16 4.22 C 4.41 3.95 4.81 3.95 5.06 4.22 C 5.06 4.22 6.76 6.03 6.76 6.03 C 6.86 6.01 6.97 6.01 7.07 6.04 C 7.07 6.04 8.82 4.18 8.82 4.18 C 9.09 3.89 9.52 3.89 9.78 4.18 C 10.05 4.46 10.05 4.92 9.78 5.21 C 9.78 5.21 8.11 6.99 8.11 6.99 C 8.11 6.99 9.79 8.79 9.79 8.79 C 10.05 9.08 10.05 9.54 9.79 9.82 C 9.52 10.11 9.09 10.11 8.83 9.82 C 8.83 9.82 7.09 7.96 7.09 7.96 C 6.98 7.99 6.88 7.99 6.77 7.97 C 6.77 7.97 5.08 9.78 5.08 9.78 C 4.84 10.05 4.44 10.05 4.19 9.78 C 3.95 9.52 3.95 9.1 4.19 8.83 C 4.19 8.83 5.89 7.01 5.89 7.01 C 5.89 7.01 4.16 5.17 4.16 5.17 C 3.92 4.9 3.92 4.48 4.16 4.22 Z" />
</svg>